# xmcd
#
# Track frame offsets: 
#        150
#        15047
#        41144
#        88750
#        164847
#        206495
#        233371
#        260462
#        281378
#        296473
#
# Disc length: 4179 seconds
#
# Revision: 0
# Processed by: cddbd v1.5.2PL0 Copyright (c) Steve Scherf et al.
# Submitted via: ExactAudioCopyFreeDBPlugin 1.0
#
DISCID=7f10510a
DTITLE=Alexis Korner and Peter Thorup - Live on Tour in Germany
DYEAR=1973
DGENRE=Blues
TTITLE0=Going Down
TTITLE1=Early In The Morning
TTITLE2=You Got The Power (To Turn Me On)
TTITLE3=Snape
TTITLE4=Rock Me Baby
TTITLE5=These Kind Of Blues
TTITLE6=The Night Time Is The Right Time
TTITLE7=Bottom Of The Sea
TTITLE8=Oo-Wee Baby
TTITLE9=Sunrise (BBC session)
EXTD=
EXTT0=
EXTT1=
EXTT2=
EXTT3=
EXTT4=
EXTT5=
EXTT6=
EXTT7=
EXTT8=
EXTT9=
PLAYORDER=
